<mxfile host="app.diagrams.net" modified="2022-01-12T03:45:32.344Z" agent="5.0 (Macintosh)" etag="iJ282pwktVlRp2Xp7YK1" version="16.2.4" type="github">
  <diagram id="bE9tsUGRjl7XfyiEoqof" name="Page-1">
    <mxGraphModel dx="4569" dy="1844" grid="1" gridSize="10" guides="1" tooltips="1" connect="1" arrows="1" fold="1" page="1" pageScale="1" pageWidth="827" pageHeight="1169" math="0" shadow="0">
      <root>
        <mxCell id="0" />
        <mxCell id="1" parent="0" />
        <mxCell id="Or5pxqyeU23qAVYO_Iuh-20" value="" style="edgeStyle=orthogonalEdgeStyle;rounded=0;orthogonalLoop=1;jettySize=auto;html=1;fontColor=#FFFFFF;" edge="1" parent="1" source="Or5pxqyeU23qAVYO_Iuh-9" target="Or5pxqyeU23qAVYO_Iuh-10">
          <mxGeometry relative="1" as="geometry" />
        </mxCell>
        <mxCell id="Or5pxqyeU23qAVYO_Iuh-9" value="应用部署" style="rounded=1;whiteSpace=wrap;html=1;fillColor=#0066CC;fontColor=#FFFFFF;" vertex="1" parent="1">
          <mxGeometry x="-1150" y="180" width="120" height="40" as="geometry" />
        </mxCell>
        <mxCell id="Or5pxqyeU23qAVYO_Iuh-22" style="edgeStyle=orthogonalEdgeStyle;rounded=0;orthogonalLoop=1;jettySize=auto;html=1;exitX=0.5;exitY=1;exitDx=0;exitDy=0;fontColor=#FFFFFF;entryX=1;entryY=0.5;entryDx=0;entryDy=0;" edge="1" parent="1" source="Or5pxqyeU23qAVYO_Iuh-10" target="Or5pxqyeU23qAVYO_Iuh-13">
          <mxGeometry relative="1" as="geometry">
            <mxPoint x="-1250" y="390" as="targetPoint" />
          </mxGeometry>
        </mxCell>
        <mxCell id="Or5pxqyeU23qAVYO_Iuh-27" value="线上故障" style="edgeLabel;html=1;align=center;verticalAlign=middle;resizable=0;points=[];fontSize=15;fontColor=#000000;" vertex="1" connectable="0" parent="Or5pxqyeU23qAVYO_Iuh-22">
          <mxGeometry x="0.2937" y="-1" relative="1" as="geometry">
            <mxPoint as="offset" />
          </mxGeometry>
        </mxCell>
        <mxCell id="Or5pxqyeU23qAVYO_Iuh-24" style="edgeStyle=orthogonalEdgeStyle;rounded=0;orthogonalLoop=1;jettySize=auto;html=1;exitX=0.5;exitY=0;exitDx=0;exitDy=0;entryX=1;entryY=0.5;entryDx=0;entryDy=0;fontColor=#FFFFFF;" edge="1" parent="1" source="Or5pxqyeU23qAVYO_Iuh-10" target="Or5pxqyeU23qAVYO_Iuh-11">
          <mxGeometry relative="1" as="geometry" />
        </mxCell>
        <mxCell id="Or5pxqyeU23qAVYO_Iuh-26" value="流量高峰/低谷" style="edgeLabel;html=1;align=center;verticalAlign=middle;resizable=0;points=[];fontColor=#000000;fontSize=15;" vertex="1" connectable="0" parent="Or5pxqyeU23qAVYO_Iuh-24">
          <mxGeometry x="0.3284" y="5" relative="1" as="geometry">
            <mxPoint as="offset" />
          </mxGeometry>
        </mxCell>
        <mxCell id="Or5pxqyeU23qAVYO_Iuh-10" value="系统运维" style="rounded=1;whiteSpace=wrap;html=1;fillColor=#0066CC;fontColor=#FFFFFF;" vertex="1" parent="1">
          <mxGeometry x="-970" y="180" width="120" height="40" as="geometry" />
        </mxCell>
        <mxCell id="Or5pxqyeU23qAVYO_Iuh-21" style="edgeStyle=orthogonalEdgeStyle;rounded=0;orthogonalLoop=1;jettySize=auto;html=1;exitX=0.5;exitY=1;exitDx=0;exitDy=0;entryX=0;entryY=0.5;entryDx=0;entryDy=0;fontColor=#FFFFFF;" edge="1" parent="1" source="Or5pxqyeU23qAVYO_Iuh-11" target="Or5pxqyeU23qAVYO_Iuh-14">
          <mxGeometry relative="1" as="geometry" />
        </mxCell>
        <mxCell id="Or5pxqyeU23qAVYO_Iuh-11" value="业务逻辑开发" style="rounded=1;whiteSpace=wrap;html=1;fillColor=#0066CC;fontColor=#FFFFFF;" vertex="1" parent="1">
          <mxGeometry x="-1600" y="10" width="120" height="40" as="geometry" />
        </mxCell>
        <mxCell id="Or5pxqyeU23qAVYO_Iuh-25" style="edgeStyle=orthogonalEdgeStyle;rounded=0;orthogonalLoop=1;jettySize=auto;html=1;exitX=0.5;exitY=0;exitDx=0;exitDy=0;entryX=0.5;entryY=1;entryDx=0;entryDy=0;fontColor=#FFFFFF;" edge="1" parent="1" source="Or5pxqyeU23qAVYO_Iuh-13" target="Or5pxqyeU23qAVYO_Iuh-15">
          <mxGeometry relative="1" as="geometry" />
        </mxCell>
        <mxCell id="Or5pxqyeU23qAVYO_Iuh-13" value="线上故障修复" style="rounded=1;whiteSpace=wrap;html=1;fillColor=#0066CC;fontColor=#FFFFFF;" vertex="1" parent="1">
          <mxGeometry x="-1330" y="290" width="120" height="40" as="geometry" />
        </mxCell>
        <mxCell id="Or5pxqyeU23qAVYO_Iuh-18" value="" style="edgeStyle=orthogonalEdgeStyle;rounded=0;orthogonalLoop=1;jettySize=auto;html=1;fontColor=#FFFFFF;" edge="1" parent="1" source="Or5pxqyeU23qAVYO_Iuh-14" target="Or5pxqyeU23qAVYO_Iuh-15">
          <mxGeometry relative="1" as="geometry" />
        </mxCell>
        <mxCell id="Or5pxqyeU23qAVYO_Iuh-14" value="资源容量评估" style="rounded=1;whiteSpace=wrap;html=1;fillColor=#0066CC;fontColor=#FFFFFF;" vertex="1" parent="1">
          <mxGeometry x="-1500" y="180" width="120" height="40" as="geometry" />
        </mxCell>
        <mxCell id="Or5pxqyeU23qAVYO_Iuh-19" value="" style="edgeStyle=orthogonalEdgeStyle;rounded=0;orthogonalLoop=1;jettySize=auto;html=1;fontColor=#FFFFFF;" edge="1" parent="1" source="Or5pxqyeU23qAVYO_Iuh-15" target="Or5pxqyeU23qAVYO_Iuh-9">
          <mxGeometry relative="1" as="geometry" />
        </mxCell>
        <mxCell id="Or5pxqyeU23qAVYO_Iuh-15" value="基础设施准备" style="rounded=1;whiteSpace=wrap;html=1;fillColor=#0066CC;fontColor=#FFFFFF;" vertex="1" parent="1">
          <mxGeometry x="-1330" y="180" width="120" height="40" as="geometry" />
        </mxCell>
        <mxCell id="Or5pxqyeU23qAVYO_Iuh-30" style="edgeStyle=orthogonalEdgeStyle;rounded=0;orthogonalLoop=1;jettySize=auto;html=1;exitX=1;exitY=0.5;exitDx=0;exitDy=0;fontSize=15;fontColor=#000000;" edge="1" parent="1" source="Or5pxqyeU23qAVYO_Iuh-28" target="Or5pxqyeU23qAVYO_Iuh-11">
          <mxGeometry relative="1" as="geometry" />
        </mxCell>
        <mxCell id="Or5pxqyeU23qAVYO_Iuh-28" value="前后端联调" style="rounded=1;whiteSpace=wrap;html=1;fillColor=#0066CC;fontColor=#FFFFFF;" vertex="1" parent="1">
          <mxGeometry x="-1750" y="10" width="120" height="40" as="geometry" />
        </mxCell>
        <mxCell id="Or5pxqyeU23qAVYO_Iuh-32" style="edgeStyle=orthogonalEdgeStyle;rounded=0;orthogonalLoop=1;jettySize=auto;html=1;exitX=1;exitY=0.5;exitDx=0;exitDy=0;entryX=0;entryY=0.5;entryDx=0;entryDy=0;fontSize=15;fontColor=#000000;" edge="1" parent="1" source="Or5pxqyeU23qAVYO_Iuh-29" target="Or5pxqyeU23qAVYO_Iuh-28">
          <mxGeometry relative="1" as="geometry" />
        </mxCell>
        <mxCell id="Or5pxqyeU23qAVYO_Iuh-29" value="前端开发" style="rounded=1;whiteSpace=wrap;html=1;fillColor=#0066CC;fontColor=#FFFFFF;" vertex="1" parent="1">
          <mxGeometry x="-1920" y="-50" width="120" height="40" as="geometry" />
        </mxCell>
        <mxCell id="Or5pxqyeU23qAVYO_Iuh-34" value="" style="edgeStyle=orthogonalEdgeStyle;rounded=0;orthogonalLoop=1;jettySize=auto;html=1;fontSize=15;fontColor=#000000;entryX=0;entryY=0.5;entryDx=0;entryDy=0;" edge="1" parent="1" source="Or5pxqyeU23qAVYO_Iuh-31" target="Or5pxqyeU23qAVYO_Iuh-28">
          <mxGeometry relative="1" as="geometry" />
        </mxCell>
        <mxCell id="Or5pxqyeU23qAVYO_Iuh-31" value="后端开发" style="rounded=1;whiteSpace=wrap;html=1;fillColor=#0066CC;fontColor=#FFFFFF;" vertex="1" parent="1">
          <mxGeometry x="-1920" y="60" width="120" height="40" as="geometry" />
        </mxCell>
        <mxCell id="Or5pxqyeU23qAVYO_Iuh-35" value="虚拟机" style="rounded=1;whiteSpace=wrap;html=1;fontSize=18;fontColor=#FFFFFF;fillColor=#333333;fontStyle=1" vertex="1" parent="1">
          <mxGeometry x="-2360" y="720" width="120" height="60" as="geometry" />
        </mxCell>
        <mxCell id="Or5pxqyeU23qAVYO_Iuh-36" value="&lt;div style=&quot;font-size: 18px;&quot;&gt;K8S&lt;/div&gt;&lt;div style=&quot;font-size: 18px;&quot;&gt;serverless&lt;br style=&quot;font-size: 18px;&quot;&gt;&lt;/div&gt;" style="rounded=1;whiteSpace=wrap;html=1;fontSize=18;fontColor=#FFFFFF;fillColor=#0066CC;fontStyle=1" vertex="1" parent="1">
          <mxGeometry x="-2040" y="580" width="120" height="200" as="geometry" />
        </mxCell>
        <mxCell id="Or5pxqyeU23qAVYO_Iuh-37" value="devops" style="rounded=1;whiteSpace=wrap;html=1;fontSize=18;fontColor=#000000;fillColor=#E6E6E6;fontStyle=1" vertex="1" parent="1">
          <mxGeometry x="-2200" y="640" width="120" height="140" as="geometry" />
        </mxCell>
        <mxCell id="Or5pxqyeU23qAVYO_Iuh-38" value="&lt;div style=&quot;font-size: 18px;&quot;&gt;serverless&lt;/div&gt;&lt;div style=&quot;font-size: 18px;&quot;&gt;Infra&lt;br style=&quot;font-size: 18px;&quot;&gt;&lt;/div&gt;" style="rounded=1;whiteSpace=wrap;html=1;fontSize=18;fontColor=#FFFFFF;fillColor=#4D9900;fontStyle=1" vertex="1" parent="1">
          <mxGeometry x="-1870" y="510" width="120" height="270" as="geometry" />
        </mxCell>
        <mxCell id="Or5pxqyeU23qAVYO_Iuh-39" value="&lt;div style=&quot;font-size: 18px&quot;&gt;Faas&lt;/div&gt;&lt;div style=&quot;font-size: 18px&quot;&gt;&amp;amp;&lt;/div&gt;&lt;div style=&quot;font-size: 18px&quot;&gt;Baas&lt;br style=&quot;font-size: 18px&quot;&gt;&lt;/div&gt;" style="rounded=1;whiteSpace=wrap;html=1;fontSize=18;fontColor=#FFFFFF;fillColor=#990000;fontStyle=1" vertex="1" parent="1">
          <mxGeometry x="-1690" y="440" width="120" height="340" as="geometry" />
        </mxCell>
        <mxCell id="Or5pxqyeU23qAVYO_Iuh-40" value="人肉运维" style="rounded=0;whiteSpace=wrap;html=1;fontSize=18;fontColor=#000000;fillColor=#FFFFFF;dashed=1;dashPattern=1 2;" vertex="1" parent="1">
          <mxGeometry x="-2610" y="680" width="160" height="40" as="geometry" />
        </mxCell>
        <mxCell id="Or5pxqyeU23qAVYO_Iuh-42" value="" style="endArrow=none;dashed=1;html=1;dashPattern=1 3;strokeWidth=2;rounded=0;fontSize=18;fontColor=#000000;exitX=1;exitY=1;exitDx=0;exitDy=0;entryX=0;entryY=0;entryDx=0;entryDy=0;" edge="1" parent="1" source="Or5pxqyeU23qAVYO_Iuh-40" target="Or5pxqyeU23qAVYO_Iuh-35">
          <mxGeometry width="50" height="50" relative="1" as="geometry">
            <mxPoint x="-2410" y="570" as="sourcePoint" />
            <mxPoint x="-2360" y="520" as="targetPoint" />
          </mxGeometry>
        </mxCell>
        <mxCell id="Or5pxqyeU23qAVYO_Iuh-43" value="自动化运维" style="rounded=0;whiteSpace=wrap;html=1;fontSize=18;fontColor=#000000;fillColor=#FFFFFF;dashed=1;dashPattern=1 2;" vertex="1" parent="1">
          <mxGeometry x="-2610" y="598.67" width="160" height="41.33" as="geometry" />
        </mxCell>
        <mxCell id="Or5pxqyeU23qAVYO_Iuh-44" value="" style="endArrow=none;dashed=1;html=1;dashPattern=1 3;strokeWidth=2;rounded=0;fontSize=18;fontColor=#000000;exitX=1;exitY=1;exitDx=0;exitDy=0;entryX=0;entryY=0;entryDx=0;entryDy=0;" edge="1" parent="1" source="Or5pxqyeU23qAVYO_Iuh-43" target="Or5pxqyeU23qAVYO_Iuh-37">
          <mxGeometry width="50" height="50" relative="1" as="geometry">
            <mxPoint x="-2410" y="488.67" as="sourcePoint" />
            <mxPoint x="-2360" y="638.67" as="targetPoint" />
          </mxGeometry>
        </mxCell>
        <mxCell id="Or5pxqyeU23qAVYO_Iuh-45" value="K8S 容器编排" style="rounded=0;whiteSpace=wrap;html=1;fontSize=18;fontColor=#000000;fillColor=#FFFFFF;dashed=1;dashPattern=1 2;" vertex="1" parent="1">
          <mxGeometry x="-2610" y="540" width="160" height="40" as="geometry" />
        </mxCell>
        <mxCell id="Or5pxqyeU23qAVYO_Iuh-46" value="" style="endArrow=none;dashed=1;html=1;dashPattern=1 3;strokeWidth=2;rounded=0;fontSize=18;fontColor=#000000;exitX=1;exitY=1;exitDx=0;exitDy=0;entryX=0;entryY=0;entryDx=0;entryDy=0;" edge="1" parent="1" source="Or5pxqyeU23qAVYO_Iuh-45" target="Or5pxqyeU23qAVYO_Iuh-36">
          <mxGeometry width="50" height="50" relative="1" as="geometry">
            <mxPoint x="-2410" y="410" as="sourcePoint" />
            <mxPoint x="-2360" y="560" as="targetPoint" />
          </mxGeometry>
        </mxCell>
        <mxCell id="Or5pxqyeU23qAVYO_Iuh-47" value="弹性基础设施" style="rounded=0;whiteSpace=wrap;html=1;fontSize=18;fontColor=#000000;fillColor=#FFFFFF;dashed=1;dashPattern=1 2;" vertex="1" parent="1">
          <mxGeometry x="-2610" y="470" width="160" height="40" as="geometry" />
        </mxCell>
        <mxCell id="Or5pxqyeU23qAVYO_Iuh-48" value="" style="endArrow=none;dashed=1;html=1;dashPattern=1 3;strokeWidth=2;rounded=0;fontSize=18;fontColor=#000000;exitX=1;exitY=1;exitDx=0;exitDy=0;entryX=0;entryY=0;entryDx=0;entryDy=0;" edge="1" parent="1" source="Or5pxqyeU23qAVYO_Iuh-47" target="Or5pxqyeU23qAVYO_Iuh-38">
          <mxGeometry width="50" height="50" relative="1" as="geometry">
            <mxPoint x="-2410" y="350" as="sourcePoint" />
            <mxPoint x="-2360" y="500" as="targetPoint" />
          </mxGeometry>
        </mxCell>
        <mxCell id="Or5pxqyeU23qAVYO_Iuh-49" value="函数计算" style="rounded=0;whiteSpace=wrap;html=1;fontSize=18;fontColor=#000000;fillColor=#FFFFFF;dashed=1;dashPattern=1 2;" vertex="1" parent="1">
          <mxGeometry x="-2610" y="400" width="160" height="40" as="geometry" />
        </mxCell>
        <mxCell id="Or5pxqyeU23qAVYO_Iuh-50" value="" style="endArrow=none;dashed=1;html=1;dashPattern=1 3;strokeWidth=2;rounded=0;fontSize=18;fontColor=#000000;exitX=1;exitY=1;exitDx=0;exitDy=0;entryX=0;entryY=0;entryDx=0;entryDy=0;" edge="1" parent="1" source="Or5pxqyeU23qAVYO_Iuh-49" target="Or5pxqyeU23qAVYO_Iuh-39">
          <mxGeometry width="50" height="50" relative="1" as="geometry">
            <mxPoint x="-2410" y="290" as="sourcePoint" />
            <mxPoint x="-2360" y="440" as="targetPoint" />
          </mxGeometry>
        </mxCell>
      </root>
    </mxGraphModel>
  </diagram>
</mxfile>
